<?xml version="1.0" encoding="UTF-8" standalone="no"?>
<!DOCTYPE svg PUBLIC "-//W3C//DTD SVG 1.1//EN"
 "http://www.w3.org/Graphics/SVG/1.1/DTD/svg11.dtd">
<!-- Generated by graphviz version 2.43.0 (0)
 -->
<!-- Title: G Pages: 1 -->
<svg width="683pt" height="620pt"
 viewBox="0.00 0.00 683.48 620.00" xmlns="http://www.w3.org/2000/svg" xmlns:xlink="http://www.w3.org/1999/xlink">
<g id="graph0" class="graph" transform="scale(1 1) rotate(0) translate(4 616)">
<title>G</title>
<polygon fill="white" stroke="transparent" points="-4,4 -4,-616 679.48,-616 679.48,4 -4,4"/>
<!-- TOKEN_SEMICOLON -->
<g id="node1" class="node">
<title>TOKEN_SEMICOLON</title>
<ellipse fill="none" stroke="black" cx="244.79" cy="-594" rx="110.48" ry="18"/>
<text text-anchor="middle" x="244.79" y="-590.3" font-family="Times,serif" font-size="14.00">TOKEN_SEMICOLON</text>
</g>
<!-- TOKEN_LSYMBOL -->
<g id="node2" class="node">
<title>TOKEN_LSYMBOL</title>
<ellipse fill="none" stroke="black" cx="407.79" cy="-522" rx="96.68" ry="18"/>
<text text-anchor="middle" x="407.79" y="-518.3" font-family="Times,serif" font-size="14.00">TOKEN_LSYMBOL</text>
</g>
<!-- TOKEN_SEMICOLON&#45;&gt;TOKEN_LSYMBOL -->
<g id="edge1" class="edge">
<title>TOKEN_SEMICOLON&#45;&gt;TOKEN_LSYMBOL</title>
<path fill="none" stroke="black" d="M282.19,-576.94C305.86,-566.78 336.63,-553.56 361.79,-542.76"/>
<polygon fill="black" stroke="black" points="363.32,-545.91 371.13,-538.74 360.56,-539.47 363.32,-545.91"/>
</g>
<!-- TOKEN_DECL -->
<g id="node3" class="node">
<title>TOKEN_DECL</title>
<ellipse fill="none" stroke="black" cx="82.79" cy="-522" rx="76.89" ry="18"/>
<text text-anchor="middle" x="82.79" y="-518.3" font-family="Times,serif" font-size="14.00">TOKEN_DECL</text>
</g>
<!-- TOKEN_SEMICOLON&#45;&gt;TOKEN_DECL -->
<g id="edge2" class="edge">
<title>TOKEN_SEMICOLON&#45;&gt;TOKEN_DECL</title>
<path fill="none" stroke="black" d="M207.63,-576.94C183.69,-566.6 152.44,-553.09 127.2,-542.19"/>
<polygon fill="black" stroke="black" points="128.41,-538.9 117.84,-538.15 125.63,-545.32 128.41,-538.9"/>
</g>
<!-- TOKEN_ASSIGN -->
<g id="node5" class="node">
<title>TOKEN_ASSIGN</title>
<ellipse fill="none" stroke="black" cx="397.79" cy="-450" rx="87.18" ry="18"/>
<text text-anchor="middle" x="397.79" y="-446.3" font-family="Times,serif" font-size="14.00">TOKEN_ASSIGN</text>
</g>
<!-- TOKEN_LSYMBOL&#45;&gt;TOKEN_ASSIGN -->
<g id="edge5" class="edge">
<title>TOKEN_LSYMBOL&#45;&gt;TOKEN_ASSIGN</title>
<path fill="none" stroke="black" d="M405.32,-503.7C404.22,-495.98 402.89,-486.71 401.66,-478.11"/>
<polygon fill="black" stroke="black" points="405.11,-477.51 400.23,-468.1 398.18,-478.5 405.11,-477.51"/>
</g>
<!-- TOKEN_OPEN_PAREN -->
<g id="node6" class="node">
<title>TOKEN_OPEN_PAREN</title>
<ellipse fill="none" stroke="black" cx="541.79" cy="-378" rx="115.88" ry="18"/>
<text text-anchor="middle" x="541.79" y="-374.3" font-family="Times,serif" font-size="14.00">TOKEN_OPEN_PAREN</text>
</g>
<!-- TOKEN_LSYMBOL&#45;&gt;TOKEN_OPEN_PAREN -->
<g id="edge6" class="edge">
<title>TOKEN_LSYMBOL&#45;&gt;TOKEN_OPEN_PAREN</title>
<path fill="none" stroke="black" d="M442.59,-504.98C459.55,-495.91 479.35,-483.3 493.79,-468 510.93,-449.84 523.84,-424.4 531.93,-405.36"/>
<polygon fill="black" stroke="black" points="535.19,-406.64 535.72,-396.06 528.7,-404 535.19,-406.64"/>
</g>
<!-- TOKEN_DSYMBOL -->
<g id="node4" class="node">
<title>TOKEN_DSYMBOL</title>
<ellipse fill="none" stroke="black" cx="98.79" cy="-450" rx="98.58" ry="18"/>
<text text-anchor="middle" x="98.79" y="-446.3" font-family="Times,serif" font-size="14.00">TOKEN_DSYMBOL</text>
</g>
<!-- TOKEN_DECL&#45;&gt;TOKEN_DSYMBOL -->
<g id="edge3" class="edge">
<title>TOKEN_DECL&#45;&gt;TOKEN_DSYMBOL</title>
<path fill="none" stroke="black" d="M86.75,-503.7C88.51,-495.98 90.63,-486.71 92.59,-478.11"/>
<polygon fill="black" stroke="black" points="96.07,-478.63 94.88,-468.1 89.24,-477.07 96.07,-478.63"/>
</g>
<!-- TOKEN_DSYMBOL&#45;&gt;TOKEN_SEMICOLON -->
<g id="edge4" class="edge">
<title>TOKEN_DSYMBOL&#45;&gt;TOKEN_SEMICOLON</title>
<path fill="none" stroke="black" d="M123.14,-467.46C137.1,-477.36 154.6,-490.61 168.79,-504 189.94,-523.95 211.19,-549.4 225.82,-567.97"/>
<polygon fill="black" stroke="black" points="223.15,-570.24 232.06,-575.98 228.67,-565.94 223.15,-570.24"/>
</g>
<!-- TOKEN_END -->
<g id="node11" class="node">
<title>TOKEN_END</title>
<ellipse fill="none" stroke="black" cx="278.79" cy="-18" rx="71.49" ry="18"/>
<text text-anchor="middle" x="278.79" y="-14.3" font-family="Times,serif" font-size="14.00">TOKEN_END</text>
</g>
<!-- TOKEN_DSYMBOL&#45;&gt;TOKEN_END -->
<g id="edge29" class="edge">
<title>TOKEN_DSYMBOL&#45;&gt;TOKEN_END</title>
<path fill="none" stroke="black" d="M103.85,-431.68C111.16,-405.11 123.79,-352.56 123.79,-307 123.79,-307 123.79,-307 123.79,-161 123.79,-101.25 187.19,-59.85 232.89,-37.76"/>
<polygon fill="black" stroke="black" points="234.48,-40.88 242.06,-33.47 231.52,-34.54 234.48,-40.88"/>
</g>
<!-- TOKEN_ASSIGN&#45;&gt;TOKEN_OPEN_PAREN -->
<g id="edge7" class="edge">
<title>TOKEN_ASSIGN&#45;&gt;TOKEN_OPEN_PAREN</title>
<path fill="none" stroke="black" d="M430.47,-433.12C450.8,-423.23 477.16,-410.42 499.13,-399.74"/>
<polygon fill="black" stroke="black" points="500.78,-402.83 508.25,-395.31 497.72,-396.53 500.78,-402.83"/>
</g>
<!-- TOKEN_RSYMBOL -->
<g id="node7" class="node">
<title>TOKEN_RSYMBOL</title>
<ellipse fill="none" stroke="black" cx="379.79" cy="-234" rx="98.28" ry="18"/>
<text text-anchor="middle" x="379.79" y="-230.3" font-family="Times,serif" font-size="14.00">TOKEN_RSYMBOL</text>
</g>
<!-- TOKEN_ASSIGN&#45;&gt;TOKEN_RSYMBOL -->
<g id="edge8" class="edge">
<title>TOKEN_ASSIGN&#45;&gt;TOKEN_RSYMBOL</title>
<path fill="none" stroke="black" d="M391.99,-431.73C382.8,-402.38 366.34,-340.81 370.79,-288 371.51,-279.5 372.86,-270.31 374.3,-262.01"/>
<polygon fill="black" stroke="black" points="377.76,-262.56 376.14,-252.09 370.88,-261.29 377.76,-262.56"/>
</g>
<!-- TOKEN_NUMBER -->
<g id="node8" class="node">
<title>TOKEN_NUMBER</title>
<ellipse fill="none" stroke="black" cx="379.79" cy="-90" rx="94.78" ry="18"/>
<text text-anchor="middle" x="379.79" y="-86.3" font-family="Times,serif" font-size="14.00">TOKEN_NUMBER</text>
</g>
<!-- TOKEN_ASSIGN&#45;&gt;TOKEN_NUMBER -->
<g id="edge9" class="edge">
<title>TOKEN_ASSIGN&#45;&gt;TOKEN_NUMBER</title>
<path fill="none" stroke="black" d="M362.93,-433.43C320.32,-411.74 253.79,-368.09 253.79,-307 253.79,-307 253.79,-307 253.79,-233 253.79,-190.33 261.93,-176.32 289.79,-144 301.26,-130.69 316.94,-119.87 332,-111.55"/>
<polygon fill="black" stroke="black" points="334.03,-114.44 341.26,-106.7 330.78,-108.24 334.03,-114.44"/>
</g>
<!-- TOKEN_UNOP -->
<g id="node9" class="node">
<title>TOKEN_UNOP</title>
<ellipse fill="none" stroke="black" cx="474.79" cy="-306" rx="79.09" ry="18"/>
<text text-anchor="middle" x="474.79" y="-302.3" font-family="Times,serif" font-size="14.00">TOKEN_UNOP</text>
</g>
<!-- TOKEN_ASSIGN&#45;&gt;TOKEN_UNOP -->
<g id="edge10" class="edge">
<title>TOKEN_ASSIGN&#45;&gt;TOKEN_UNOP</title>
<path fill="none" stroke="black" d="M398.37,-431.83C399.68,-413.05 403.83,-382.62 416.79,-360 423.37,-348.51 433.3,-338.12 443.09,-329.64"/>
<polygon fill="black" stroke="black" points="445.34,-332.32 450.85,-323.26 440.9,-326.91 445.34,-332.32"/>
</g>
<!-- TOKEN_OPEN_PAREN&#45;&gt;TOKEN_SEMICOLON -->
<g id="edge23" class="edge">
<title>TOKEN_OPEN_PAREN&#45;&gt;TOKEN_SEMICOLON</title>
<path fill="none" stroke="black" d="M544.46,-396.08C548.53,-428.85 552.17,-500.75 513.79,-540 491.2,-563.1 416.94,-576.6 352.16,-584.19"/>
<polygon fill="black" stroke="black" points="351.39,-580.76 341.85,-585.36 352.18,-587.71 351.39,-580.76"/>
</g>
<!-- TOKEN_OPEN_PAREN&#45;&gt;TOKEN_OPEN_PAREN -->
<g id="edge14" class="edge">
<title>TOKEN_OPEN_PAREN&#45;&gt;TOKEN_OPEN_PAREN</title>
<path fill="none" stroke="black" d="M619.06,-391.43C649.77,-392.14 675.48,-387.67 675.48,-378 675.48,-369.43 655.26,-364.94 629.27,-364.53"/>
<polygon fill="black" stroke="black" points="629.05,-361.03 619.06,-364.57 629.08,-368.03 629.05,-361.03"/>
</g>
<!-- TOKEN_OPEN_PAREN&#45;&gt;TOKEN_RSYMBOL -->
<g id="edge15" class="edge">
<title>TOKEN_OPEN_PAREN&#45;&gt;TOKEN_RSYMBOL</title>
<path fill="none" stroke="black" d="M455.04,-365.93C429.24,-358.28 403.44,-345.46 386.79,-324 373.32,-306.64 372.62,-281.22 374.68,-261.99"/>
<polygon fill="black" stroke="black" points="378.16,-262.41 376.05,-252.03 371.22,-261.46 378.16,-262.41"/>
</g>
<!-- TOKEN_OPEN_PAREN&#45;&gt;TOKEN_NUMBER -->
<g id="edge16" class="edge">
<title>TOKEN_OPEN_PAREN&#45;&gt;TOKEN_NUMBER</title>
<path fill="none" stroke="black" d="M557.83,-359.85C565.8,-350.12 574.62,-337.27 578.79,-324 583.59,-308.74 583.09,-303.41 578.79,-288 558.72,-215.97 547.28,-194.12 491.79,-144 475.6,-129.38 454.67,-118.02 435.28,-109.64"/>
<polygon fill="black" stroke="black" points="436.5,-106.36 425.92,-105.77 433.82,-112.82 436.5,-106.36"/>
</g>
<!-- TOKEN_OPEN_PAREN&#45;&gt;TOKEN_UNOP -->
<g id="edge17" class="edge">
<title>TOKEN_OPEN_PAREN&#45;&gt;TOKEN_UNOP</title>
<path fill="none" stroke="black" d="M519.69,-360.05C510.69,-351.58 500.51,-341.17 492.05,-331.82"/>
<polygon fill="black" stroke="black" points="494.65,-329.47 485.41,-324.28 489.4,-334.09 494.65,-329.47"/>
</g>
<!-- TOKEN_OPEN_PAREN&#45;&gt;TOKEN_END -->
<g id="edge26" class="edge">
<title>TOKEN_OPEN_PAREN&#45;&gt;TOKEN_END</title>
<path fill="none" stroke="black" d="M568.7,-360.48C602.96,-337.13 657.79,-291.03 657.79,-235 657.79,-235 657.79,-235 657.79,-161 657.79,-95.42 456.27,-49.98 347.12,-30.17"/>
<polygon fill="black" stroke="black" points="347.64,-26.71 337.18,-28.39 346.41,-33.6 347.64,-26.71"/>
</g>
<!-- TOKEN_RSYMBOL&#45;&gt;TOKEN_SEMICOLON -->
<g id="edge24" class="edge">
<title>TOKEN_RSYMBOL&#45;&gt;TOKEN_SEMICOLON</title>
<path fill="none" stroke="black" d="M372.8,-252.05C358.88,-286.09 326.9,-365.01 301.79,-432 284.14,-479.1 264.85,-534.48 253.85,-566.48"/>
<polygon fill="black" stroke="black" points="250.51,-565.41 250.58,-576 257.13,-567.68 250.51,-565.41"/>
</g>
<!-- TOKEN_BINOP -->
<g id="node10" class="node">
<title>TOKEN_BINOP</title>
<ellipse fill="none" stroke="black" cx="379.79" cy="-162" rx="81.49" ry="18"/>
<text text-anchor="middle" x="379.79" y="-158.3" font-family="Times,serif" font-size="14.00">TOKEN_BINOP</text>
</g>
<!-- TOKEN_RSYMBOL&#45;&gt;TOKEN_BINOP -->
<g id="edge18" class="edge">
<title>TOKEN_RSYMBOL&#45;&gt;TOKEN_BINOP</title>
<path fill="none" stroke="black" d="M373.88,-215.7C373.08,-207.98 372.85,-198.71 373.2,-190.11"/>
<polygon fill="black" stroke="black" points="376.69,-190.32 373.9,-180.1 369.71,-189.84 376.69,-190.32"/>
</g>
<!-- TOKEN_RSYMBOL&#45;&gt;TOKEN_END -->
<g id="edge27" class="edge">
<title>TOKEN_RSYMBOL&#45;&gt;TOKEN_END</title>
<path fill="none" stroke="black" d="M337.99,-217.53C320.54,-209.02 301.62,-196.73 289.79,-180 261.73,-140.3 266.66,-80.43 272.75,-45.99"/>
<polygon fill="black" stroke="black" points="276.18,-46.65 274.64,-36.17 269.31,-45.33 276.18,-46.65"/>
</g>
<!-- TOKEN_NUMBER&#45;&gt;TOKEN_SEMICOLON -->
<g id="edge25" class="edge">
<title>TOKEN_NUMBER&#45;&gt;TOKEN_SEMICOLON</title>
<path fill="none" stroke="black" d="M328.4,-105.2C305.56,-113.55 279.63,-126.07 260.79,-144 228.69,-174.56 215.79,-188.68 215.79,-233 215.79,-307 215.79,-307 215.79,-307 215.79,-402.55 232.01,-515.14 240.19,-565.85"/>
<polygon fill="black" stroke="black" points="236.78,-566.67 241.85,-575.98 243.69,-565.54 236.78,-566.67"/>
</g>
<!-- TOKEN_NUMBER&#45;&gt;TOKEN_BINOP -->
<g id="edge19" class="edge">
<title>TOKEN_NUMBER&#45;&gt;TOKEN_BINOP</title>
<path fill="none" stroke="black" d="M385.69,-108.1C386.49,-115.79 386.73,-125.05 386.4,-133.67"/>
<polygon fill="black" stroke="black" points="382.9,-133.48 385.71,-143.7 389.88,-133.96 382.9,-133.48"/>
</g>
<!-- TOKEN_NUMBER&#45;&gt;TOKEN_END -->
<g id="edge28" class="edge">
<title>TOKEN_NUMBER&#45;&gt;TOKEN_END</title>
<path fill="none" stroke="black" d="M355.86,-72.41C342.3,-63.02 325.17,-51.15 310.51,-40.98"/>
<polygon fill="black" stroke="black" points="312.42,-38.05 302.21,-35.23 308.43,-43.8 312.42,-38.05"/>
</g>
<!-- TOKEN_UNOP&#45;&gt;TOKEN_OPEN_PAREN -->
<g id="edge11" class="edge">
<title>TOKEN_UNOP&#45;&gt;TOKEN_OPEN_PAREN</title>
<path fill="none" stroke="black" d="M496.46,-323.55C505.64,-332.15 516.07,-342.82 524.7,-352.37"/>
<polygon fill="black" stroke="black" points="522.22,-354.85 531.45,-360.05 527.48,-350.23 522.22,-354.85"/>
</g>
<!-- TOKEN_UNOP&#45;&gt;TOKEN_RSYMBOL -->
<g id="edge12" class="edge">
<title>TOKEN_UNOP&#45;&gt;TOKEN_RSYMBOL</title>
<path fill="none" stroke="black" d="M452.28,-288.41C439.83,-279.24 424.18,-267.7 410.61,-257.71"/>
<polygon fill="black" stroke="black" points="412.6,-254.83 402.47,-251.71 408.45,-260.46 412.6,-254.83"/>
</g>
<!-- TOKEN_UNOP&#45;&gt;TOKEN_NUMBER -->
<g id="edge13" class="edge">
<title>TOKEN_UNOP&#45;&gt;TOKEN_NUMBER</title>
<path fill="none" stroke="black" d="M479.98,-287.95C488.53,-256.17 501.65,-187.22 469.79,-144 459.63,-130.22 444.73,-119.4 429.96,-111.22"/>
<polygon fill="black" stroke="black" points="431.31,-107.98 420.82,-106.47 428.08,-114.19 431.31,-107.98"/>
</g>
<!-- TOKEN_BINOP&#45;&gt;TOKEN_OPEN_PAREN -->
<g id="edge20" class="edge">
<title>TOKEN_BINOP&#45;&gt;TOKEN_OPEN_PAREN</title>
<path fill="none" stroke="black" d="M423.63,-177.21C469.35,-194.82 537.78,-229.86 562.79,-288 571.47,-308.18 564.63,-332.55 556.51,-350.68"/>
<polygon fill="black" stroke="black" points="553.19,-349.52 551.96,-360.05 559.48,-352.58 553.19,-349.52"/>
</g>
<!-- TOKEN_BINOP&#45;&gt;TOKEN_RSYMBOL -->
<g id="edge21" class="edge">
<title>TOKEN_BINOP&#45;&gt;TOKEN_RSYMBOL</title>
<path fill="none" stroke="black" d="M385.69,-180.1C386.49,-187.79 386.73,-197.05 386.4,-205.67"/>
<polygon fill="black" stroke="black" points="382.9,-205.48 385.71,-215.7 389.88,-205.96 382.9,-205.48"/>
</g>
<!-- TOKEN_BINOP&#45;&gt;TOKEN_NUMBER -->
<g id="edge22" class="edge">
<title>TOKEN_BINOP&#45;&gt;TOKEN_NUMBER</title>
<path fill="none" stroke="black" d="M373.88,-143.7C373.08,-135.98 372.85,-126.71 373.2,-118.11"/>
<polygon fill="black" stroke="black" points="376.69,-118.32 373.9,-108.1 369.71,-117.84 376.69,-118.32"/>
</g>
</g>
</svg>
