<?xml version="1.0" encoding="UTF-8" standalone="no"?>
<!DOCTYPE svg PUBLIC "-//W3C//DTD SVG 1.1//EN"
 "http://www.w3.org/Graphics/SVG/1.1/DTD/svg11.dtd">
<!-- Generated by graphviz version 2.43.0 (0)
 -->
<!-- Title: G Pages: 1 -->
<svg width="819pt" height="692pt"
 viewBox="0.00 0.00 819.48 692.00" xmlns="http://www.w3.org/2000/svg" xmlns:xlink="http://www.w3.org/1999/xlink">
<g id="graph0" class="graph" transform="scale(1 1) rotate(0) translate(4 688)">
<title>G</title>
<polygon fill="white" stroke="transparent" points="-4,4 -4,-688 815.48,-688 815.48,4 -4,4"/>
<!-- TOKEN_SEMICOLON -->
<g id="node1" class="node">
<title>TOKEN_SEMICOLON</title>
<ellipse fill="none" stroke="black" cx="516.69" cy="-666" rx="110.48" ry="18"/>
<text text-anchor="middle" x="516.69" y="-662.3" font-family="Times,serif" font-size="14.00">TOKEN_SEMICOLON</text>
</g>
<!-- TOKEN_LSYMBOL -->
<g id="node2" class="node">
<title>TOKEN_LSYMBOL</title>
<ellipse fill="none" stroke="black" cx="454.69" cy="-594" rx="96.68" ry="18"/>
<text text-anchor="middle" x="454.69" y="-590.3" font-family="Times,serif" font-size="14.00">TOKEN_LSYMBOL</text>
</g>
<!-- TOKEN_SEMICOLON&#45;&gt;TOKEN_LSYMBOL -->
<g id="edge1" class="edge">
<title>TOKEN_SEMICOLON&#45;&gt;TOKEN_LSYMBOL</title>
<path fill="none" stroke="black" d="M501.68,-648.05C494.07,-639.46 484.68,-628.86 476.3,-619.4"/>
<polygon fill="black" stroke="black" points="478.81,-616.95 469.56,-611.79 473.57,-621.6 478.81,-616.95"/>
</g>
<!-- TOKEN_DECL -->
<g id="node3" class="node">
<title>TOKEN_DECL</title>
<ellipse fill="none" stroke="black" cx="690.69" cy="-594" rx="76.89" ry="18"/>
<text text-anchor="middle" x="690.69" y="-590.3" font-family="Times,serif" font-size="14.00">TOKEN_DECL</text>
</g>
<!-- TOKEN_SEMICOLON&#45;&gt;TOKEN_DECL -->
<g id="edge2" class="edge">
<title>TOKEN_SEMICOLON&#45;&gt;TOKEN_DECL</title>
<path fill="none" stroke="black" d="M556.18,-649.12C582.37,-638.58 616.84,-624.71 644.34,-613.65"/>
<polygon fill="black" stroke="black" points="645.77,-616.84 653.74,-609.86 643.16,-610.35 645.77,-616.84"/>
</g>
<!-- TOKEN_ASSIGN -->
<g id="node5" class="node">
<title>TOKEN_ASSIGN</title>
<ellipse fill="none" stroke="black" cx="454.69" cy="-522" rx="87.18" ry="18"/>
<text text-anchor="middle" x="454.69" y="-518.3" font-family="Times,serif" font-size="14.00">TOKEN_ASSIGN</text>
</g>
<!-- TOKEN_LSYMBOL&#45;&gt;TOKEN_ASSIGN -->
<g id="edge5" class="edge">
<title>TOKEN_LSYMBOL&#45;&gt;TOKEN_ASSIGN</title>
<path fill="none" stroke="black" d="M454.69,-575.7C454.69,-567.98 454.69,-558.71 454.69,-550.11"/>
<polygon fill="black" stroke="black" points="458.19,-550.1 454.69,-540.1 451.19,-550.1 458.19,-550.1"/>
</g>
<!-- TOKEN_LPAREN -->
<g id="node6" class="node">
<title>TOKEN_LPAREN</title>
<ellipse fill="none" stroke="black" cx="335.69" cy="-450" rx="89.08" ry="18"/>
<text text-anchor="middle" x="335.69" y="-446.3" font-family="Times,serif" font-size="14.00">TOKEN_LPAREN</text>
</g>
<!-- TOKEN_LSYMBOL&#45;&gt;TOKEN_LPAREN -->
<g id="edge6" class="edge">
<title>TOKEN_LSYMBOL&#45;&gt;TOKEN_LPAREN</title>
<path fill="none" stroke="black" d="M410.63,-577.78C392.13,-569.32 371.88,-557 358.69,-540 344.98,-522.31 339.38,-497.29 337.13,-478.28"/>
<polygon fill="black" stroke="black" points="340.6,-477.78 336.18,-468.15 333.63,-478.44 340.6,-477.78"/>
</g>
<!-- TOKEN_DSYMBOL -->
<g id="node4" class="node">
<title>TOKEN_DSYMBOL</title>
<ellipse fill="none" stroke="black" cx="712.69" cy="-522" rx="98.58" ry="18"/>
<text text-anchor="middle" x="712.69" y="-518.3" font-family="Times,serif" font-size="14.00">TOKEN_DSYMBOL</text>
</g>
<!-- TOKEN_DECL&#45;&gt;TOKEN_DSYMBOL -->
<g id="edge3" class="edge">
<title>TOKEN_DECL&#45;&gt;TOKEN_DSYMBOL</title>
<path fill="none" stroke="black" d="M696.13,-575.7C698.58,-567.9 701.53,-558.51 704.26,-549.83"/>
<polygon fill="black" stroke="black" points="707.66,-550.69 707.32,-540.1 700.98,-548.59 707.66,-550.69"/>
</g>
<!-- TOKEN_DSYMBOL&#45;&gt;TOKEN_SEMICOLON -->
<g id="edge4" class="edge">
<title>TOKEN_DSYMBOL&#45;&gt;TOKEN_SEMICOLON</title>
<path fill="none" stroke="black" d="M742.45,-539.4C755.52,-548.34 769.51,-560.73 776.69,-576 783.5,-590.48 786.81,-599.61 776.69,-612 757.23,-635.83 687.26,-649.23 624.81,-656.58"/>
<polygon fill="black" stroke="black" points="624.4,-653.11 614.86,-657.71 625.19,-660.06 624.4,-653.11"/>
</g>
<!-- TOKEN_END -->
<g id="node12" class="node">
<title>TOKEN_END</title>
<ellipse fill="none" stroke="black" cx="313.69" cy="-18" rx="71.49" ry="18"/>
<text text-anchor="middle" x="313.69" y="-14.3" font-family="Times,serif" font-size="14.00">TOKEN_END</text>
</g>
<!-- TOKEN_DSYMBOL&#45;&gt;TOKEN_END -->
<g id="edge34" class="edge">
<title>TOKEN_DSYMBOL&#45;&gt;TOKEN_END</title>
<path fill="none" stroke="black" d="M703.79,-504.04C690.93,-477.93 668.69,-425.97 668.69,-379 668.69,-379 668.69,-379 668.69,-161 668.69,-99.41 482.15,-52.5 379.52,-31.34"/>
<polygon fill="black" stroke="black" points="380.05,-27.88 369.55,-29.32 378.65,-34.74 380.05,-27.88"/>
</g>
<!-- TOKEN_ASSIGN&#45;&gt;TOKEN_LPAREN -->
<g id="edge7" class="edge">
<title>TOKEN_ASSIGN&#45;&gt;TOKEN_LPAREN</title>
<path fill="none" stroke="black" d="M427.09,-504.76C410.72,-495.13 389.78,-482.81 372.07,-472.4"/>
<polygon fill="black" stroke="black" points="373.54,-469.2 363.14,-467.15 369.99,-475.23 373.54,-469.2"/>
</g>
<!-- TOKEN_RSYMBOL -->
<g id="node7" class="node">
<title>TOKEN_RSYMBOL</title>
<ellipse fill="none" stroke="black" cx="215.69" cy="-306" rx="98.28" ry="18"/>
<text text-anchor="middle" x="215.69" y="-302.3" font-family="Times,serif" font-size="14.00">TOKEN_RSYMBOL</text>
</g>
<!-- TOKEN_ASSIGN&#45;&gt;TOKEN_RSYMBOL -->
<g id="edge8" class="edge">
<title>TOKEN_ASSIGN&#45;&gt;TOKEN_RSYMBOL</title>
<path fill="none" stroke="black" d="M381.95,-512.08C326.67,-503.75 256.94,-489.35 237.69,-468 204.66,-431.35 206.49,-369.62 210.97,-334.2"/>
<polygon fill="black" stroke="black" points="214.46,-334.5 212.41,-324.1 207.53,-333.51 214.46,-334.5"/>
</g>
<!-- TOKEN_NUMBER -->
<g id="node8" class="node">
<title>TOKEN_NUMBER</title>
<ellipse fill="none" stroke="black" cx="373.69" cy="-162" rx="94.78" ry="18"/>
<text text-anchor="middle" x="373.69" y="-158.3" font-family="Times,serif" font-size="14.00">TOKEN_NUMBER</text>
</g>
<!-- TOKEN_ASSIGN&#45;&gt;TOKEN_NUMBER -->
<g id="edge9" class="edge">
<title>TOKEN_ASSIGN&#45;&gt;TOKEN_NUMBER</title>
<path fill="none" stroke="black" d="M475.55,-504.14C503.25,-479.72 548.69,-431.63 548.69,-379 548.69,-379 548.69,-379 548.69,-305 548.69,-242.38 480.3,-202.56 429.03,-181.5"/>
<polygon fill="black" stroke="black" points="430.26,-178.23 419.67,-177.79 427.67,-184.73 430.26,-178.23"/>
</g>
<!-- TOKEN_UNOP -->
<g id="node9" class="node">
<title>TOKEN_UNOP</title>
<ellipse fill="none" stroke="black" cx="441.69" cy="-378" rx="79.09" ry="18"/>
<text text-anchor="middle" x="441.69" y="-374.3" font-family="Times,serif" font-size="14.00">TOKEN_UNOP</text>
</g>
<!-- TOKEN_ASSIGN&#45;&gt;TOKEN_UNOP -->
<g id="edge10" class="edge">
<title>TOKEN_ASSIGN&#45;&gt;TOKEN_UNOP</title>
<path fill="none" stroke="black" d="M454.89,-503.88C454.91,-485.92 454.44,-456.89 451.69,-432 450.75,-423.49 449.21,-414.3 447.61,-406"/>
<polygon fill="black" stroke="black" points="451.02,-405.19 445.6,-396.09 444.16,-406.58 451.02,-405.19"/>
</g>
<!-- TOKEN_LPAREN&#45;&gt;TOKEN_LPAREN -->
<g id="edge14" class="edge">
<title>TOKEN_LPAREN&#45;&gt;TOKEN_LPAREN</title>
<path fill="none" stroke="black" d="M395.67,-463.36C421.09,-464.37 442.73,-459.91 442.73,-450 442.73,-441.44 426.6,-436.95 405.84,-436.53"/>
<polygon fill="black" stroke="black" points="405.64,-433.03 395.67,-436.64 405.71,-440.03 405.64,-433.03"/>
</g>
<!-- TOKEN_LPAREN&#45;&gt;TOKEN_RSYMBOL -->
<g id="edge15" class="edge">
<title>TOKEN_LPAREN&#45;&gt;TOKEN_RSYMBOL</title>
<path fill="none" stroke="black" d="M317.39,-431.93C306.87,-421.82 293.62,-408.57 282.69,-396 264.81,-375.42 246.31,-350.53 233.3,-332.31"/>
<polygon fill="black" stroke="black" points="236.01,-330.08 227.37,-323.94 230.3,-334.13 236.01,-330.08"/>
</g>
<!-- TOKEN_LPAREN&#45;&gt;TOKEN_NUMBER -->
<g id="edge16" class="edge">
<title>TOKEN_LPAREN&#45;&gt;TOKEN_NUMBER</title>
<path fill="none" stroke="black" d="M339,-431.91C342.51,-413.97 348.28,-384.96 353.69,-360 364.13,-311.85 373.1,-300.95 378.69,-252 380.51,-236.1 379.44,-231.98 378.69,-216 378.3,-207.66 377.56,-198.6 376.77,-190.37"/>
<polygon fill="black" stroke="black" points="380.22,-189.75 375.72,-180.16 373.26,-190.46 380.22,-189.75"/>
</g>
<!-- TOKEN_LPAREN&#45;&gt;TOKEN_UNOP -->
<g id="edge17" class="edge">
<title>TOKEN_LPAREN&#45;&gt;TOKEN_UNOP</title>
<path fill="none" stroke="black" d="M354.97,-432.41C368.49,-422.79 386.84,-410.58 403.24,-400.26"/>
<polygon fill="black" stroke="black" points="405.45,-403 412.1,-394.75 401.76,-397.06 405.45,-403"/>
</g>
<!-- TOKEN_RPAREN -->
<g id="node11" class="node">
<title>TOKEN_RPAREN</title>
<ellipse fill="none" stroke="black" cx="89.69" cy="-90" rx="89.88" ry="18"/>
<text text-anchor="middle" x="89.69" y="-86.3" font-family="Times,serif" font-size="14.00">TOKEN_RPAREN</text>
</g>
<!-- TOKEN_LPAREN&#45;&gt;TOKEN_RPAREN -->
<g id="edge29" class="edge">
<title>TOKEN_LPAREN&#45;&gt;TOKEN_RPAREN</title>
<path fill="none" stroke="black" d="M265.2,-438.91C192.51,-424.05 89.69,-388.61 89.69,-307 89.69,-307 89.69,-307 89.69,-233 89.69,-193 89.69,-146.65 89.69,-118.08"/>
<polygon fill="black" stroke="black" points="93.19,-118.05 89.69,-108.05 86.19,-118.05 93.19,-118.05"/>
</g>
<!-- TOKEN_RSYMBOL&#45;&gt;TOKEN_SEMICOLON -->
<g id="edge24" class="edge">
<title>TOKEN_RSYMBOL&#45;&gt;TOKEN_SEMICOLON</title>
<path fill="none" stroke="black" d="M208.61,-324.15C198.38,-350.51 180.69,-402.79 180.69,-449 180.69,-523 180.69,-523 180.69,-523 180.69,-620.1 301.22,-651.82 397.9,-661.65"/>
<polygon fill="black" stroke="black" points="397.78,-665.16 408.07,-662.62 398.44,-658.19 397.78,-665.16"/>
</g>
<!-- TOKEN_BINOP -->
<g id="node10" class="node">
<title>TOKEN_BINOP</title>
<ellipse fill="none" stroke="black" cx="288.69" cy="-234" rx="81.49" ry="18"/>
<text text-anchor="middle" x="288.69" y="-230.3" font-family="Times,serif" font-size="14.00">TOKEN_BINOP</text>
</g>
<!-- TOKEN_RSYMBOL&#45;&gt;TOKEN_BINOP -->
<g id="edge18" class="edge">
<title>TOKEN_RSYMBOL&#45;&gt;TOKEN_BINOP</title>
<path fill="none" stroke="black" d="M227.49,-288.05C235.9,-279.07 247.38,-267.9 258.19,-258.12"/>
<polygon fill="black" stroke="black" points="260.71,-260.56 265.88,-251.31 256.07,-255.32 260.71,-260.56"/>
</g>
<!-- TOKEN_RSYMBOL&#45;&gt;TOKEN_RPAREN -->
<g id="edge26" class="edge">
<title>TOKEN_RSYMBOL&#45;&gt;TOKEN_RPAREN</title>
<path fill="none" stroke="black" d="M197.05,-288.07C186.93,-278.21 174.67,-265.17 165.69,-252 135.86,-208.27 111.92,-150.98 99.35,-117.86"/>
<polygon fill="black" stroke="black" points="102.6,-116.54 95.82,-108.39 96.04,-118.99 102.6,-116.54"/>
</g>
<!-- TOKEN_RSYMBOL&#45;&gt;TOKEN_END -->
<g id="edge32" class="edge">
<title>TOKEN_RSYMBOL&#45;&gt;TOKEN_END</title>
<path fill="none" stroke="black" d="M207.81,-287.76C200.61,-269.71 192.04,-240.6 198.69,-216 217.07,-148.05 265.37,-79.49 293.18,-43.92"/>
<polygon fill="black" stroke="black" points="295.97,-46.03 299.45,-36.02 290.49,-41.68 295.97,-46.03"/>
</g>
<!-- TOKEN_NUMBER&#45;&gt;TOKEN_SEMICOLON -->
<g id="edge25" class="edge">
<title>TOKEN_NUMBER&#45;&gt;TOKEN_SEMICOLON</title>
<path fill="none" stroke="black" d="M434.16,-175.96C497.13,-193.42 586.69,-231.22 586.69,-305 586.69,-379 586.69,-379 586.69,-379 586.69,-483.2 601.46,-516.11 560.69,-612 556.3,-622.34 549.2,-632.23 541.97,-640.61"/>
<polygon fill="black" stroke="black" points="539.25,-638.4 535.1,-648.14 544.42,-643.12 539.25,-638.4"/>
</g>
<!-- TOKEN_NUMBER&#45;&gt;TOKEN_BINOP -->
<g id="edge19" class="edge">
<title>TOKEN_NUMBER&#45;&gt;TOKEN_BINOP</title>
<path fill="none" stroke="black" d="M359.07,-179.88C348.89,-189.07 335.1,-200.55 322.37,-210.5"/>
<polygon fill="black" stroke="black" points="320.01,-207.9 314.21,-216.76 324.27,-213.45 320.01,-207.9"/>
</g>
<!-- TOKEN_NUMBER&#45;&gt;TOKEN_RPAREN -->
<g id="edge28" class="edge">
<title>TOKEN_NUMBER&#45;&gt;TOKEN_RPAREN</title>
<path fill="none" stroke="black" d="M318.26,-147.34C271.14,-135.72 203.46,-119.04 153.98,-106.84"/>
<polygon fill="black" stroke="black" points="154.57,-103.39 144.02,-104.39 152.89,-110.18 154.57,-103.39"/>
</g>
<!-- TOKEN_NUMBER&#45;&gt;TOKEN_END -->
<g id="edge33" class="edge">
<title>TOKEN_NUMBER&#45;&gt;TOKEN_END</title>
<path fill="none" stroke="black" d="M366.45,-143.87C356.14,-119.46 337.11,-74.43 324.95,-45.64"/>
<polygon fill="black" stroke="black" points="328.07,-44.04 320.96,-36.19 321.62,-46.76 328.07,-44.04"/>
</g>
<!-- TOKEN_UNOP&#45;&gt;TOKEN_LPAREN -->
<g id="edge11" class="edge">
<title>TOKEN_UNOP&#45;&gt;TOKEN_LPAREN</title>
<path fill="none" stroke="black" d="M422.58,-395.47C409.18,-405.01 390.97,-417.14 374.63,-427.44"/>
<polygon fill="black" stroke="black" points="372.43,-424.68 365.79,-432.94 376.13,-430.63 372.43,-424.68"/>
</g>
<!-- TOKEN_UNOP&#45;&gt;TOKEN_RSYMBOL -->
<g id="edge12" class="edge">
<title>TOKEN_UNOP&#45;&gt;TOKEN_RSYMBOL</title>
<path fill="none" stroke="black" d="M396.77,-363.09C361.44,-352.14 311.95,-336.81 273.64,-324.95"/>
<polygon fill="black" stroke="black" points="274.24,-321.47 263.65,-321.85 272.17,-328.16 274.24,-321.47"/>
</g>
<!-- TOKEN_UNOP&#45;&gt;TOKEN_NUMBER -->
<g id="edge13" class="edge">
<title>TOKEN_UNOP&#45;&gt;TOKEN_NUMBER</title>
<path fill="none" stroke="black" d="M440.93,-359.85C439.08,-329.63 432.77,-265.43 411.69,-216 407.49,-206.16 401.22,-196.36 394.97,-187.92"/>
<polygon fill="black" stroke="black" points="397.7,-185.73 388.81,-179.97 392.17,-190.02 397.7,-185.73"/>
</g>
<!-- TOKEN_BINOP&#45;&gt;TOKEN_LPAREN -->
<g id="edge20" class="edge">
<title>TOKEN_BINOP&#45;&gt;TOKEN_LPAREN</title>
<path fill="none" stroke="black" d="M303.09,-251.9C310.52,-261.74 318.82,-274.78 322.69,-288 327.19,-303.35 323.14,-308.01 322.69,-324 321.8,-356 316.29,-364.29 320.69,-396 321.88,-404.52 324.08,-413.61 326.44,-421.8"/>
<polygon fill="black" stroke="black" points="323.17,-423.06 329.45,-431.59 329.86,-421.01 323.17,-423.06"/>
</g>
<!-- TOKEN_BINOP&#45;&gt;TOKEN_RSYMBOL -->
<g id="edge21" class="edge">
<title>TOKEN_BINOP&#45;&gt;TOKEN_RSYMBOL</title>
<path fill="none" stroke="black" d="M276.89,-251.96C268.54,-260.87 257.19,-271.92 246.47,-281.63"/>
<polygon fill="black" stroke="black" points="243.99,-279.15 238.83,-288.41 248.63,-284.39 243.99,-279.15"/>
</g>
<!-- TOKEN_BINOP&#45;&gt;TOKEN_NUMBER -->
<g id="edge22" class="edge">
<title>TOKEN_BINOP&#45;&gt;TOKEN_NUMBER</title>
<path fill="none" stroke="black" d="M303.39,-216.05C313.47,-206.96 327.07,-195.63 339.67,-185.77"/>
<polygon fill="black" stroke="black" points="341.97,-188.42 347.76,-179.55 337.7,-182.87 341.97,-188.42"/>
</g>
<!-- TOKEN_RPAREN&#45;&gt;TOKEN_SEMICOLON -->
<g id="edge23" class="edge">
<title>TOKEN_RPAREN&#45;&gt;TOKEN_SEMICOLON</title>
<path fill="none" stroke="black" d="M82,-108.09C70.9,-134.38 51.69,-186.55 51.69,-233 51.69,-523 51.69,-523 51.69,-523 51.69,-598.45 278.47,-637.77 415.28,-654.63"/>
<polygon fill="black" stroke="black" points="415.03,-658.12 425.38,-655.85 415.87,-651.17 415.03,-658.12"/>
</g>
<!-- TOKEN_RPAREN&#45;&gt;TOKEN_BINOP -->
<g id="edge31" class="edge">
<title>TOKEN_RPAREN&#45;&gt;TOKEN_BINOP</title>
<path fill="none" stroke="black" d="M112.87,-107.54C148.65,-133.07 217.41,-182.14 257.52,-210.76"/>
<polygon fill="black" stroke="black" points="255.69,-213.75 265.86,-216.71 259.76,-208.05 255.69,-213.75"/>
</g>
<!-- TOKEN_RPAREN&#45;&gt;TOKEN_RPAREN -->
<g id="edge27" class="edge">
<title>TOKEN_RPAREN&#45;&gt;TOKEN_RPAREN</title>
<path fill="none" stroke="black" d="M150.04,-103.36C175.6,-104.37 197.38,-99.91 197.38,-90 197.38,-81.44 181.15,-76.95 160.27,-76.53"/>
<polygon fill="black" stroke="black" points="160,-73.03 150.04,-76.64 160.07,-80.03 160,-73.03"/>
</g>
<!-- TOKEN_RPAREN&#45;&gt;TOKEN_END -->
<g id="edge30" class="edge">
<title>TOKEN_RPAREN&#45;&gt;TOKEN_END</title>
<path fill="none" stroke="black" d="M136.1,-74.5C172.45,-63.14 223.03,-47.33 260.92,-35.49"/>
<polygon fill="black" stroke="black" points="262.25,-38.74 270.75,-32.42 260.16,-32.06 262.25,-38.74"/>
</g>
</g>
</svg>
