<?xml version="1.0" encoding="UTF-8" standalone="no"?><!DOCTYPE svg PUBLIC "-//W3C//DTD SVG 1.1//EN" "http://www.w3.org/Graphics/SVG/1.1/DTD/svg11.dtd"><!-- Generated by graphviz version 2.40.1 (20161225.0304)
 --><!-- Title: G Pages: 1 --><svg xmlns="http://www.w3.org/2000/svg" xmlns:xlink="http://www.w3.org/1999/xlink" width="702pt" height="620pt" viewBox="0.00 0.00 701.78 620.00">
<g id="graph0" class="graph" transform="scale(1 1) rotate(0) translate(4 616)">
<title>G</title>
<polygon fill="#ffffff" stroke="transparent" points="-4,4 -4,-616 697.7839,-616 697.7839,4 -4,4"/>
<!-- TOKEN_SEMICOLON -->
<g id="node1" class="node">
<title>TOKEN_SEMICOLON</title>
<ellipse fill="none" stroke="#000000" cx="415" cy="-594" rx="104.7964" ry="18"/>
<text text-anchor="middle" x="415" y="-589.8" font-family="Times,serif" font-size="14.00" fill="#000000">TOKEN_SEMICOLON</text>
</g>
<!-- TOKEN_LSYMBOL -->
<g id="node2" class="node">
<title>TOKEN_LSYMBOL</title>
<ellipse fill="none" stroke="#000000" cx="273" cy="-522" rx="94.9245" ry="18"/>
<text text-anchor="middle" x="273" y="-517.8" font-family="Times,serif" font-size="14.00" fill="#000000">TOKEN_LSYMBOL</text>
</g>
<!-- TOKEN_SEMICOLON&#45;&gt;TOKEN_LSYMBOL -->
<g id="edge1" class="edge">
<title>TOKEN_SEMICOLON-&gt;TOKEN_LSYMBOL</title>
<path fill="none" stroke="#000000" d="M381.348,-576.937C361.6299,-566.9391 336.5394,-554.2171 315.4697,-543.5339"/>
<polygon fill="#000000" stroke="#000000" points="316.9123,-540.3412 306.4105,-538.9405 313.7467,-546.5845 316.9123,-540.3412"/>
</g>
<!-- TOKEN_DECL -->
<g id="node3" class="node">
<title>TOKEN_DECL</title>
<ellipse fill="none" stroke="#000000" cx="536" cy="-522" rx="73.5772" ry="18"/>
<text text-anchor="middle" x="536" y="-517.8" font-family="Times,serif" font-size="14.00" fill="#000000">TOKEN_DECL</text>
</g>
<!-- TOKEN_SEMICOLON&#45;&gt;TOKEN_DECL -->
<g id="edge2" class="edge">
<title>TOKEN_SEMICOLON-&gt;TOKEN_DECL</title>
<path fill="none" stroke="#000000" d="M444.2907,-576.5708C460.7293,-566.7892 481.401,-554.4887 498.9554,-544.0431"/>
<polygon fill="#000000" stroke="#000000" points="501.0083,-546.8943 507.8122,-538.7729 497.4287,-540.8788 501.0083,-546.8943"/>
</g>
<!-- TOKEN_ASSIGN -->
<g id="node5" class="node">
<title>TOKEN_ASSIGN</title>
<ellipse fill="none" stroke="#000000" cx="278" cy="-450" rx="83.3867" ry="18"/>
<text text-anchor="middle" x="278" y="-445.8" font-family="Times,serif" font-size="14.00" fill="#000000">TOKEN_ASSIGN</text>
</g>
<!-- TOKEN_LSYMBOL&#45;&gt;TOKEN_ASSIGN -->
<g id="edge5" class="edge">
<title>TOKEN_LSYMBOL-&gt;TOKEN_ASSIGN</title>
<path fill="none" stroke="#000000" d="M274.2617,-503.8314C274.7965,-496.131 275.4323,-486.9743 276.0266,-478.4166"/>
<polygon fill="#000000" stroke="#000000" points="279.52,-478.6317 276.7213,-468.4133 272.5368,-478.1467 279.52,-478.6317"/>
</g>
<!-- TOKEN_OPEN_PAREN -->
<g id="node6" class="node">
<title>TOKEN_OPEN_PAREN</title>
<ellipse fill="none" stroke="#000000" cx="122" cy="-378" rx="110.0353" ry="18"/>
<text text-anchor="middle" x="122" y="-373.8" font-family="Times,serif" font-size="14.00" fill="#000000">TOKEN_OPEN_PAREN</text>
</g>
<!-- TOKEN_LSYMBOL&#45;&gt;TOKEN_OPEN_PAREN -->
<g id="edge6" class="edge">
<title>TOKEN_LSYMBOL-&gt;TOKEN_OPEN_PAREN</title>
<path fill="none" stroke="#000000" d="M239.0158,-505.0731C221.9726,-495.5954 201.679,-482.7263 186,-468 166.3037,-449.5006 148.8967,-424.0922 137.228,-404.9891"/>
<polygon fill="#000000" stroke="#000000" points="140.1017,-402.9743 131.9758,-396.1757 134.0885,-406.5578 140.1017,-402.9743"/>
</g>
<!-- TOKEN_DSYMBOL -->
<g id="node4" class="node">
<title>TOKEN_DSYMBOL</title>
<ellipse fill="none" stroke="#000000" cx="598" cy="-450" rx="95.5683" ry="18"/>
<text text-anchor="middle" x="598" y="-445.8" font-family="Times,serif" font-size="14.00" fill="#000000">TOKEN_DSYMBOL</text>
</g>
<!-- TOKEN_DECL&#45;&gt;TOKEN_DSYMBOL -->
<g id="edge3" class="edge">
<title>TOKEN_DECL-&gt;TOKEN_DSYMBOL</title>
<path fill="none" stroke="#000000" d="M551.3258,-504.2022C558.7779,-495.5483 567.8698,-484.99 576.0427,-475.4988"/>
<polygon fill="#000000" stroke="#000000" points="578.7625,-477.7041 582.6356,-467.8425 573.4581,-473.1364 578.7625,-477.7041"/>
</g>
<!-- TOKEN_DSYMBOL&#45;&gt;TOKEN_SEMICOLON -->
<g id="edge4" class="edge">
<title>TOKEN_DSYMBOL-&gt;TOKEN_SEMICOLON</title>
<path fill="none" stroke="#000000" d="M610.1954,-468.0793C621.7564,-487.6977 635.148,-519.0214 619,-540 604.735,-558.5323 553.9616,-572.0105 506.6416,-580.8665"/>
<polygon fill="#000000" stroke="#000000" points="505.8254,-577.4573 496.6108,-582.6863 507.075,-584.3449 505.8254,-577.4573"/>
</g>
<!-- TOKEN_ASSIGN&#45;&gt;TOKEN_OPEN_PAREN -->
<g id="edge7" class="edge">
<title>TOKEN_ASSIGN-&gt;TOKEN_OPEN_PAREN</title>
<path fill="none" stroke="#000000" d="M242.6012,-433.6621C220.5388,-423.4795 191.9171,-410.2694 168.0935,-399.2739"/>
<polygon fill="#000000" stroke="#000000" points="169.4328,-396.0373 158.8864,-395.0245 166.4993,-402.393 169.4328,-396.0373"/>
</g>
<!-- TOKEN_RSYMBOL -->
<g id="node7" class="node">
<title>TOKEN_RSYMBOL</title>
<ellipse fill="none" stroke="#000000" cx="255" cy="-234" rx="95.0062" ry="18"/>
<text text-anchor="middle" x="255" y="-229.8" font-family="Times,serif" font-size="14.00" fill="#000000">TOKEN_RSYMBOL</text>
</g>
<!-- TOKEN_ASSIGN&#45;&gt;TOKEN_RSYMBOL -->
<g id="edge8" class="edge">
<title>TOKEN_ASSIGN-&gt;TOKEN_RSYMBOL</title>
<path fill="none" stroke="#000000" d="M286.112,-431.9019C298.6215,-401.3128 319.354,-337.8497 301,-288 297.1305,-277.4904 290.2056,-267.6334 282.8843,-259.2915"/>
<polygon fill="#000000" stroke="#000000" points="285.2291,-256.6758 275.8302,-251.7859 280.1283,-261.4698 285.2291,-256.6758"/>
</g>
<!-- TOKEN_NUMBER -->
<g id="node8" class="node">
<title>TOKEN_NUMBER</title>
<ellipse fill="none" stroke="#000000" cx="255" cy="-90" rx="89.7691" ry="18"/>
<text text-anchor="middle" x="255" y="-85.8" font-family="Times,serif" font-size="14.00" fill="#000000">TOKEN_NUMBER</text>
</g>
<!-- TOKEN_ASSIGN&#45;&gt;TOKEN_NUMBER -->
<g id="edge9" class="edge">
<title>TOKEN_ASSIGN-&gt;TOKEN_NUMBER</title>
<path fill="none" stroke="#000000" d="M293.3911,-432.0105C301.3559,-421.9552 310.7028,-408.8832 317,-396 353.0748,-322.1958 368.5024,-297.5975 359,-216 355.1967,-183.3408 361.2001,-170.6916 342,-144 332.1998,-130.3759 317.7961,-119.4566 303.5172,-111.0999"/>
<polygon fill="#000000" stroke="#000000" points="305.1314,-107.9931 294.6848,-106.2265 301.7496,-114.1221 305.1314,-107.9931"/>
</g>
<!-- TOKEN_UNOP -->
<g id="node9" class="node">
<title>TOKEN_UNOP</title>
<ellipse fill="none" stroke="#000000" cx="217" cy="-306" rx="74.7207" ry="18"/>
<text text-anchor="middle" x="217" y="-301.8" font-family="Times,serif" font-size="14.00" fill="#000000">TOKEN_UNOP</text>
</g>
<!-- TOKEN_ASSIGN&#45;&gt;TOKEN_UNOP -->
<g id="edge10" class="edge">
<title>TOKEN_ASSIGN-&gt;TOKEN_UNOP</title>
<path fill="none" stroke="#000000" d="M276.6015,-431.9995C274.607,-413.2735 269.8915,-383.466 259,-360 254.3014,-349.8768 247.3932,-339.9095 240.5307,-331.3477"/>
<polygon fill="#000000" stroke="#000000" points="243.1476,-329.0214 234.0387,-323.6104 237.7852,-333.5207 243.1476,-329.0214"/>
</g>
<!-- TOKEN_OPEN_PAREN&#45;&gt;TOKEN_SEMICOLON -->
<g id="edge23" class="edge">
<title>TOKEN_OPEN_PAREN-&gt;TOKEN_SEMICOLON</title>
<path fill="none" stroke="#000000" d="M121.6461,-396.1089C122.0355,-429.6655 127.9461,-501.581 169,-540 190.5787,-560.1937 257.961,-574.118 316.7574,-582.7632"/>
<polygon fill="#000000" stroke="#000000" points="316.4697,-586.2577 326.865,-584.2108 317.4622,-579.3284 316.4697,-586.2577"/>
</g>
<!-- TOKEN_OPEN_PAREN&#45;&gt;TOKEN_OPEN_PAREN -->
<g id="edge14" class="edge">
<title>TOKEN_OPEN_PAREN-&gt;TOKEN_OPEN_PAREN</title>
<path fill="none" stroke="#000000" d="M195.8139,-391.4176C225.4187,-392.1757 250.2674,-387.7031 250.2674,-378 250.2674,-369.434 230.9014,-364.9444 205.9935,-364.5314"/>
<polygon fill="#000000" stroke="#000000" points="205.7962,-361.0322 195.8139,-364.5824 205.8313,-368.0321 205.7962,-361.0322"/>
</g>
<!-- TOKEN_OPEN_PAREN&#45;&gt;TOKEN_RSYMBOL -->
<g id="edge15" class="edge">
<title>TOKEN_OPEN_PAREN-&gt;TOKEN_RSYMBOL</title>
<path fill="none" stroke="#000000" d="M119.3188,-359.8781C117.4348,-340.2223 117.5337,-308.8661 133,-288 145.4458,-271.209 164.2752,-259.5459 183.4418,-251.4819"/>
<polygon fill="#000000" stroke="#000000" points="184.8108,-254.7047 192.8515,-247.8056 182.2634,-248.1847 184.8108,-254.7047"/>
</g>
<!-- TOKEN_OPEN_PAREN&#45;&gt;TOKEN_NUMBER -->
<g id="edge16" class="edge">
<title>TOKEN_OPEN_PAREN-&gt;TOKEN_NUMBER</title>
<path fill="none" stroke="#000000" d="M118.1587,-359.6001C116.1834,-349.2025 113.9877,-335.9346 113,-324 106.2636,-242.6056 99.0495,-207.8315 150,-144 162.0305,-128.928 179.3992,-117.6409 196.5577,-109.3924"/>
<polygon fill="#000000" stroke="#000000" points="198.3572,-112.4204 206.0334,-105.1178 195.4787,-106.0396 198.3572,-112.4204"/>
</g>
<!-- TOKEN_OPEN_PAREN&#45;&gt;TOKEN_UNOP -->
<g id="edge17" class="edge">
<title>TOKEN_OPEN_PAREN-&gt;TOKEN_UNOP</title>
<path fill="none" stroke="#000000" d="M139.5674,-360.2022C151.0874,-350.7532 166.4102,-339.0337 180.432,-328.9121"/>
<polygon fill="#000000" stroke="#000000" points="182.8308,-331.5008 188.9488,-322.851 178.772,-325.7976 182.8308,-331.5008"/>
</g>
<!-- TOKEN_END -->
<g id="node11" class="node">
<title>TOKEN_END</title>
<ellipse fill="none" stroke="#000000" cx="255" cy="-18" rx="68.3401" ry="18"/>
<text text-anchor="middle" x="255" y="-13.8" font-family="Times,serif" font-size="14.00" fill="#000000">TOKEN_END</text>
</g>
<!-- TOKEN_OPEN_PAREN&#45;&gt;TOKEN_END -->
<g id="edge26" class="edge">
<title>TOKEN_OPEN_PAREN-&gt;TOKEN_END</title>
<path fill="none" stroke="#000000" d="M92.1554,-360.4859C56.0375,-336.7837 0,-290.8491 0,-234 0,-234 0,-234 0,-162 0,-77.4578 107.5876,-41.9887 182.9962,-27.5113"/>
<polygon fill="#000000" stroke="#000000" points="183.7419,-30.933 192.9461,-25.6857 182.4786,-24.048 183.7419,-30.933"/>
</g>
<!-- TOKEN_RSYMBOL&#45;&gt;TOKEN_SEMICOLON -->
<g id="edge24" class="edge">
<title>TOKEN_RSYMBOL-&gt;TOKEN_SEMICOLON</title>
<path fill="none" stroke="#000000" d="M281.5932,-251.3804C294.3926,-260.8908 309.0754,-273.6528 319,-288 380.8949,-377.4769 404.2333,-508.6438 411.8139,-565.7239"/>
<polygon fill="#000000" stroke="#000000" points="408.3619,-566.3243 413.0893,-575.806 415.3065,-565.4457 408.3619,-566.3243"/>
</g>
<!-- TOKEN_BINOP -->
<g id="node10" class="node">
<title>TOKEN_BINOP</title>
<ellipse fill="none" stroke="#000000" cx="255" cy="-162" rx="77.5878" ry="18"/>
<text text-anchor="middle" x="255" y="-157.8" font-family="Times,serif" font-size="14.00" fill="#000000">TOKEN_BINOP</text>
</g>
<!-- TOKEN_RSYMBOL&#45;&gt;TOKEN_BINOP -->
<g id="edge18" class="edge">
<title>TOKEN_RSYMBOL-&gt;TOKEN_BINOP</title>
<path fill="none" stroke="#000000" d="M249.0476,-215.8314C248.2972,-208.131 248.0763,-198.9743 248.3849,-190.4166"/>
<polygon fill="#000000" stroke="#000000" points="251.8792,-190.6161 249.024,-180.4133 244.8935,-190.1697 251.8792,-190.6161"/>
</g>
<!-- TOKEN_RSYMBOL&#45;&gt;TOKEN_END -->
<g id="edge27" class="edge">
<title>TOKEN_RSYMBOL-&gt;TOKEN_END</title>
<path fill="none" stroke="#000000" d="M296.0954,-217.6657C312.8814,-208.9455 330.9189,-196.5419 342,-180 368.8787,-139.8755 378.6531,-113.5291 354,-72 344.2606,-55.5936 327.5898,-43.8529 310.6762,-35.6031"/>
<polygon fill="#000000" stroke="#000000" points="311.8519,-32.2939 301.2973,-31.3716 308.9731,-38.6745 311.8519,-32.2939"/>
</g>
<!-- TOKEN_NUMBER&#45;&gt;TOKEN_SEMICOLON -->
<g id="edge25" class="edge">
<title>TOKEN_NUMBER-&gt;TOKEN_SEMICOLON</title>
<path fill="none" stroke="#000000" d="M302.9687,-105.2351C355.9907,-125.4301 434,-166.5959 434,-234 434,-450 434,-450 434,-450 434,-490.4718 426.532,-536.7963 420.96,-565.7275"/>
<polygon fill="#000000" stroke="#000000" points="417.4517,-565.4254 418.9368,-575.9156 424.3177,-566.7889 417.4517,-565.4254"/>
</g>
<!-- TOKEN_NUMBER&#45;&gt;TOKEN_BINOP -->
<g id="edge19" class="edge">
<title>TOKEN_NUMBER-&gt;TOKEN_BINOP</title>
<path fill="none" stroke="#000000" d="M260.976,-108.4133C261.7071,-116.0593 261.9203,-125.1084 261.6155,-133.5726"/>
<polygon fill="#000000" stroke="#000000" points="258.1048,-133.6264 260.9524,-143.8314 265.0902,-134.078 258.1048,-133.6264"/>
</g>
<!-- TOKEN_NUMBER&#45;&gt;TOKEN_END -->
<g id="edge28" class="edge">
<title>TOKEN_NUMBER-&gt;TOKEN_END</title>
<path fill="none" stroke="#000000" d="M255,-71.8314C255,-64.131 255,-54.9743 255,-46.4166"/>
<polygon fill="#000000" stroke="#000000" points="258.5001,-46.4132 255,-36.4133 251.5001,-46.4133 258.5001,-46.4132"/>
</g>
<!-- TOKEN_UNOP&#45;&gt;TOKEN_OPEN_PAREN -->
<g id="edge11" class="edge">
<title>TOKEN_UNOP-&gt;TOKEN_OPEN_PAREN</title>
<path fill="none" stroke="#000000" d="M199.773,-323.5182C188.4307,-332.8383 173.3033,-344.4261 159.3596,-354.5158"/>
<polygon fill="#000000" stroke="#000000" points="156.9817,-351.9129 150.8751,-360.5708 161.048,-357.6107 156.9817,-351.9129"/>
</g>
<!-- TOKEN_UNOP&#45;&gt;TOKEN_RSYMBOL -->
<g id="edge12" class="edge">
<title>TOKEN_UNOP-&gt;TOKEN_RSYMBOL</title>
<path fill="none" stroke="#000000" d="M226.589,-287.8314C230.897,-279.6688 236.0686,-269.87 240.8119,-260.8827"/>
<polygon fill="#000000" stroke="#000000" points="243.9734,-262.3909 245.5457,-251.9134 237.7827,-259.1236 243.9734,-262.3909"/>
</g>
<!-- TOKEN_UNOP&#45;&gt;TOKEN_NUMBER -->
<g id="edge13" class="edge">
<title>TOKEN_UNOP-&gt;TOKEN_NUMBER</title>
<path fill="none" stroke="#000000" d="M186.3171,-289.3724C172.841,-280.2777 158.4177,-267.6531 151,-252 144.1483,-237.5413 149.1492,-231.8926 151,-216 154.8033,-183.3408 148.7999,-170.6916 168,-144 177.8002,-130.3759 192.2039,-119.4566 206.4828,-111.0999"/>
<polygon fill="#000000" stroke="#000000" points="208.2504,-114.1221 215.3152,-106.2265 204.8686,-107.9931 208.2504,-114.1221"/>
</g>
<!-- TOKEN_BINOP&#45;&gt;TOKEN_OPEN_PAREN -->
<g id="edge20" class="edge">
<title>TOKEN_BINOP-&gt;TOKEN_OPEN_PAREN</title>
<path fill="none" stroke="#000000" d="M211.6941,-176.9711C191.2473,-185.7751 167.7224,-198.6344 151,-216 116.0943,-252.2483 114.6777,-273.7312 117,-324 117.3807,-332.2397 118.0864,-341.1641 118.85,-349.3396"/>
<polygon fill="#000000" stroke="#000000" points="115.3915,-349.9308 119.8649,-359.5349 122.3571,-349.2374 115.3915,-349.9308"/>
</g>
<!-- TOKEN_BINOP&#45;&gt;TOKEN_RSYMBOL -->
<g id="edge21" class="edge">
<title>TOKEN_BINOP-&gt;TOKEN_RSYMBOL</title>
<path fill="none" stroke="#000000" d="M260.976,-180.4133C261.7071,-188.0593 261.9203,-197.1084 261.6155,-205.5726"/>
<polygon fill="#000000" stroke="#000000" points="258.1048,-205.6264 260.9524,-215.8314 265.0902,-206.078 258.1048,-205.6264"/>
</g>
<!-- TOKEN_BINOP&#45;&gt;TOKEN_NUMBER -->
<g id="edge22" class="edge">
<title>TOKEN_BINOP-&gt;TOKEN_NUMBER</title>
<path fill="none" stroke="#000000" d="M249.0476,-143.8314C248.2972,-136.131 248.0763,-126.9743 248.3849,-118.4166"/>
<polygon fill="#000000" stroke="#000000" points="251.8792,-118.6161 249.024,-108.4133 244.8935,-118.1697 251.8792,-118.6161"/>
</g>
</g>
</svg>